<svg width="19" height="19" viewBox="0 0 19 19" fill="none" xmlns="http://www.w3.org/2000/svg">
<path d="M19 15.5135C19 15.8555 18.9239 16.207 18.7621 16.549C18.6004 16.891 18.3911 17.214 18.1152 17.518C17.649 18.031 17.1352 18.4015 16.5548 18.639C15.984 18.8765 15.3655 19 14.6996 19C13.7291 19 12.692 18.772 11.5979 18.3065C10.5038 17.841 9.40961 17.214 8.32499 16.4255C7.23085 15.6275 6.19379 14.744 5.20431 13.7655C4.22434 12.7775 3.33951 11.742 2.54982 10.659C1.76965 9.576 1.14171 8.493 0.685028 7.4195C0.228343 6.3365 0 5.301 0 4.313C0 3.667 0.114171 3.0495 0.342514 2.4795C0.570856 1.9 0.932399 1.368 1.43666 0.893C2.04557 0.2945 2.71157 0 3.41562 0C3.68202 0 3.94842 0.0570001 4.18628 0.171C4.43365 0.285 4.65248 0.456 4.82374 0.703L7.03105 3.8095C7.2023 4.047 7.32599 4.2655 7.41162 4.4745C7.49725 4.674 7.54482 4.8735 7.54482 5.054C7.54482 5.282 7.47822 5.51 7.34502 5.7285C7.22133 5.947 7.04056 6.175 6.81222 6.403L6.08913 7.1535C5.98448 7.258 5.93691 7.3815 5.93691 7.5335C5.93691 7.6095 5.94642 7.676 5.96545 7.752C5.99399 7.828 6.02253 7.885 6.04156 7.942C6.21282 8.2555 6.50776 8.664 6.92639 9.158C7.35453 9.652 7.81122 10.1555 8.30596 10.659C8.81973 11.1625 9.31447 11.628 9.81873 12.0555C10.3135 12.4735 10.7226 12.7585 11.0461 12.9295C11.0936 12.9485 11.1507 12.977 11.2173 13.0055C11.2934 13.034 11.3696 13.0435 11.4552 13.0435C11.6169 13.0435 11.7406 12.9865 11.8453 12.882L12.5684 12.1695C12.8062 11.932 13.0346 11.7515 13.2534 11.6375C13.4722 11.5045 13.691 11.438 13.9289 11.438C14.1097 11.438 14.3 11.476 14.5093 11.5615C14.7186 11.647 14.9374 11.7705 15.1753 11.932L18.3245 14.1645C18.5719 14.3355 18.7431 14.535 18.8478 14.7725C18.9429 15.01 19 15.2475 19 15.5135Z" fill="#2B2A29"/>
</svg>
