<svg width="52" height="52" viewBox="0 0 52 52" fill="none" xmlns="http://www.w3.org/2000/svg">
<circle cx="26" cy="26" r="26" fill="#F55FAF"/>
<path d="M26 22.3333C30.5563 22.3333 34.25 21.1021 34.25 19.5833C34.25 18.0646 30.5563 16.8333 26 16.8333C21.4437 16.8333 17.75 18.0646 17.75 19.5833C17.75 21.1021 21.4437 22.3333 26 22.3333Z" stroke="#2B2A29" stroke-width="1.5" stroke-linecap="round" stroke-linejoin="round"/>
<path d="M34.25 26C34.25 27.5217 30.5833 28.75 26 28.75C21.4167 28.75 17.75 27.5217 17.75 26" stroke="#2B2A29" stroke-width="1.5" stroke-linecap="round" stroke-linejoin="round"/>
<path d="M17.75 19.5833V32.4167C17.75 33.9383 21.4167 35.1667 26 35.1667C30.5833 35.1667 34.25 33.9383 34.25 32.4167V19.5833" stroke="#2B2A29" stroke-width="1.5" stroke-linecap="round" stroke-linejoin="round"/>
</svg>
